<svg id="visual" viewBox="0 0 900 600" width="900" height="600" xmlns="http://www.w3.org/2000/svg" xmlns:xlink="http://www.w3.org/1999/xlink" version="1.1"><rect x="0" y="0" width="900" height="600" fill="#F4F4F6"></rect><path d="M0 417L18.8 426.5C37.7 436 75.3 455 112.8 470.2C150.3 485.3 187.7 496.7 225.2 486.5C262.7 476.3 300.3 444.7 337.8 434.5C375.3 424.3 412.7 435.7 450.2 448C487.7 460.3 525.3 473.7 562.8 479.2C600.3 484.7 637.7 482.3 675.2 469.8C712.7 457.3 750.3 434.7 787.8 445.7C825.3 456.7 862.7 501.3 881.3 523.7L900 546" fill="none" stroke-linecap="round" stroke-linejoin="miter" stroke="#034732" stroke-width="40"></path></svg>