<svg id="visual" viewBox="0 0 900 600" width="900" height="600" xmlns="http://www.w3.org/2000/svg" xmlns:xlink="http://www.w3.org/1999/xlink" version="1.1"><rect x="0" y="0" width="900" height="600" fill="#E1EFF6"></rect><path d="M0 370L129 392L257 349L386 432L514 422L643 386L771 439L900 393L900 601L771 601L643 601L514 601L386 601L257 601L129 601L0 601Z" fill="#fdceaf"></path><path d="M0 470L129 436L257 402L386 403L514 458L643 397L771 442L900 423L900 601L771 601L643 601L514 601L386 601L257 601L129 601L0 601Z" fill="#fdc7a2"></path><path d="M0 505L129 502L257 479L386 501L514 471L643 495L771 480L900 457L900 601L771 601L643 601L514 601L386 601L257 601L129 601L0 601Z" fill="#fdbf96"></path><path d="M0 505L129 513L257 530L386 485L514 504L643 510L771 489L900 531L900 601L771 601L643 601L514 601L386 601L257 601L129 601L0 601Z" fill="#fdb88a"></path><path d="M0 546L129 532L257 565L386 558L514 548L643 556L771 538L900 539L900 601L771 601L643 601L514 601L386 601L257 601L129 601L0 601Z" fill="#fcb07e"></path></svg>